<svg
  id="Capa_1"
  enable-background="new 0 0 512 512"
  height="24"
  viewBox="0 0 512 512"
  width="24"
  xmlns="http://www.w3.org/2000/svg"
><g><g><path
        d="m445.332 118.826h-349.456c-3.703 0-7.363-.257-10.961-.752v41.068h367.537v-40.633c-2.353.208-4.727.317-7.12.317z"
        fill="#ea9b58"
      /><path
        d="m508.862 85.646c-.504-1.027-1.549-1.677-2.692-1.677h-7.341c-15.596 0-29.597-9.283-35.668-23.648l-16.484-39.004h-352.146l-16.484 39.003c-6.071 14.366-20.071 23.648-35.667 23.648h-7.342c-1.144 0-2.188.65-2.692 1.677-.505 1.027-.381 2.251.317 3.156 15.224 19.716 38.264 31.024 63.213 31.024h349.456c24.949 0 47.989-11.308 63.213-31.024.698-.905.822-2.129.317-3.155z"
        fill="#3e5959"
      /><g><path
          d="m319.342 472.613c0 .552.447 1 .999 1h132.11v-154.34h-133.11v153.34z"
          fill="#fff9e2"
        /></g><g fill="#d88a55"><path
          d="m391.242 426.651v-34.008c0-4.142-3.357-7.5-7.5-7.5s-7.5 3.358-7.5 7.5v34.008z"
        /><path
          d="m412.876 426.651v-34.008c0-4.142-3.357-7.5-7.5-7.5s-7.5 3.358-7.5 7.5v34.008z"
        /><path
          d="m434.51 426.651v-34.008c0-4.142-3.357-7.5-7.5-7.5s-7.5 3.358-7.5 7.5v34.008z"
        /></g><g fill="#fff9e2"><path
          d="m143.414 172.142h-58.499v15.636h33.101z"
        /><path d="m96.899 200.778h-11.984v7.378z" /><path
          d="m326.498 172.142c-.553 0-1 .448-1 1v13.636c0 .552.447 1 1 1h125.953v-15.636z"
        /><path
          d="m346.677 254.555c.949.584 1.075 1.544.876 2.248s-.81 1.456-1.925 1.456h-20.13v28.798c0 .552.447 1 1 1h125.953v-87.278h-125.953c-.553 0-1 .448-1 1v39.739z"
        /></g><g fill="#fff5c6"><path
          d="m312.498 233.513v-31.735c0-.552-.447-1-1-1h-52.174z"
        /><path
          d="m238.208 187.778h73.29c.553 0 1-.448 1-1v-13.636c0-.552-.447-1-1-1h-98.688z"
        /></g><g fill="#9b5e5e"><path
          d="m214.434 173.142h97.064v13.636h-74.915l24.365 15h50.55v31.12l15 9.234v-40.354h125.953v-15h-125.953v-13.636h125.953v-15h-262.382z"
        /><path
          d="m320.342 258.258c-.553 0-1 .448-1 1v61.015h133.11v-33.217h-125.954v-28.798z"
        /><path d="m119.64 186.778h-34.725v15h10.36z" /><path
          d="m166.155 158.142h-81.24v15h56.875z"
        /></g><g><path
          d="m35.882 258.258v31.335l4.613 1h275.027l4.82-1v-31.335z"
          fill="#cbe5e8"
        /></g><g><g fill="#cbe5e8"><path
            d="m38 345.61-2.118 1v127.003h80.259l1-1.863v-126.14z"
          /><path
            d="m318 345.61h-78.917v126.14l1 1.863h80.259v-127.003z"
          /></g><g fill="#a8d3d8"><path
            d="m35.882 258.258h32.495v31.335h-32.495z"
          /><path d="m35.882 346.61h32.495v127.003h-32.495z" /></g><g><path
            d="m35.882 297.093h284.46v42.016h-284.46z"
            fill="#fac600"
          /></g><g><path
            d="m35.882 297.093h32.495v42.016h-32.495z"
            fill="#e8b800"
          /></g><g><path
            d="m123.641 339.11h108.942v134.503h-108.942z"
            fill="#fff"
          /><path
            d="m116.141 472.613v1h15v-127.003h93.942v127.003h15v-1-126.003h80.259v-15h-80.259v-27.017h80.259v-15h-284.46v15h80.259v27.017h-80.259v15h80.259zm15-168.02h93.942v27.017h-93.942z"
            fill="#7ca1b1"
          /></g><g><path
            d="m152.276 440.978v-70.233c0-1.657 1.343-3 3-3h45.671c1.657 0 3 1.343 3 3v70.233c0 1.657-1.343 3-3 3h-45.671c-1.657 0-3-1.343-3-3z"
            fill="#ea9b58"
          /></g><g><path
            d="m152.276 370.745v70.233c0 1.657 1.343 3 3 3h18.309v-76.233h-18.309c-1.657 0-3 1.343-3 3z"
            fill="#d88a55"
          /></g><g><path
            d="m176.539 150.575-167.516 103.128c-2.576 1.586-1.452 5.555 1.573 5.555h335.033c3.025 0 4.148-3.969 1.573-5.555l-167.517-103.128c-.965-.594-2.181-.594-3.146 0z"
            fill="#537983"
          /></g><g><path
            d="m235.352 214.559-57.24-35.239-57.24 35.239z"
            fill="#cbe5e8"
          /></g><path
          d="m178.112 179.32-57.24 35.239h20.648l46.916-28.883z"
          fill="#a8d3d8"
        /><g><g><path
              d="m72.607 214.559-63.584 39.144c-2.576 1.586-1.452 5.555 1.573 5.555h335.033c3.025 0 4.148-3.969 1.573-5.555l-63.584-39.144z"
              fill="#3e5959"
            /></g></g><g><path
            d="m72.607 214.559-63.584 39.144c-2.576 1.586-1.452 5.555 1.573 5.555h32.376l72.607-44.699z"
            fill="#384949"
          /></g></g><g><path
          d="m94.531 21.315-16.484 39.005c-6.071 14.366-20.071 23.648-35.667 23.648h-7.342c-1.144 0-2.188.65-2.692 1.677-.505 1.027-.381 2.251.317 3.156 13.577 17.584 33.374 28.472 55.195 30.623.073.006.15.009.222.016l54.18-98.125h-47.729z"
          fill="#384949"
        /><g><path
            d="m462.696 22.315h-384.184c-4.143 0-7.5-3.358-7.5-7.5s3.357-7.5 7.5-7.5h384.185c4.143 0 7.5 3.358 7.5 7.5s-3.358 7.5-7.501 7.5z"
            fill="#537983"
          /></g></g></g><path
      d="m478.21 473.613v-42.811c0-2.845-2.306-5.151-5.151-5.151h-103.094c-2.845 0-5.151 2.306-5.151 5.151v42.811z"
      fill="#3e5959"
    /><path
      d="m397.059 473.613v-42.811c0-2.845 2.306-5.151 5.151-5.151h-32.244c-2.845 0-5.151 2.306-5.151 5.151v42.811z"
      fill="#384949"
    /><g><path
        d="m506.849 504.685h-501.698c-2.845 0-5.151-2.306-5.151-5.151v-21.77c0-2.845 2.306-5.151 5.151-5.151h501.698c2.845 0 5.151 2.306 5.151 5.151v21.77c0 2.845-2.306 5.151-5.151 5.151z"
        fill="#ea9b58"
      /></g><g><path
        d="m52.024 499.534v-21.77c0-2.845 2.306-5.151 5.151-5.151h-52.024c-2.845 0-5.151 2.306-5.151 5.151v21.77c0 2.845 2.306 5.151 5.151 5.151h52.024c-2.845 0-5.151-2.306-5.151-5.151z"
        fill="#d88a55"
      /></g></g></svg>
