<?xml version="1.0" encoding="iso-8859-1" ?>
<!-- Generator: Adobe Illustrator 19.0.0, SVG Export Plug-In . SVG Version: 6.00 Build 0)  -->
<svg
  version="1.1"
  id="Capa_1"
  xmlns="http://www.w3.org/2000/svg"
  xmlns:xlink="http://www.w3.org/1999/xlink"
  x="0px"
  y="0px"
  viewBox="0 0 512 512"
  style="enable-background:new 0 0 512 512;"
  xml:space="preserve"
	width="24"
  height="24"
>
<rect
    x="226.226"
    y="89.185"
    style="fill:#F50C15;"
    width="59.544"
    height="115.26"
  />
<rect
    x="226.226"
    y="89.185"
    style="fill:#B10000;"
    width="59.544"
    height="43.612"
  />
<polyline
    style="fill:#F50C15;"
    points="449.517,85.79 449.517,454.019 374.3,454.019 374.3,85.79 "
  />
<polyline
    style="fill:#474A51;"
    points="449.517,419.55 449.517,468.125 374.3,468.125 374.3,419.55 "
  />
<g>
	<polyline
      style="fill:#B10000;"
      points="449.517,195.476 449.517,244.052 374.3,244.052 374.3,195.476 	"
    />
	<polyline
      style="fill:#B10000;"
      points="449.517,84.222 449.517,132.798 374.3,132.798 374.3,84.222 	"
    />
</g>
<polyline
    style="fill:#F50C15;"
    points="137.7,85.79 137.7,454.019 62.483,454.019 62.483,85.79 "
  />
<polyline
    style="fill:#474A51;"
    points="137.7,419.55 137.7,468.125 62.483,468.125 62.483,419.55 "
  />
<g>
	<polyline
      style="fill:#B10000;"
      points="137.7,195.476 137.7,244.052 62.483,244.052 62.483,195.476 	"
    />
	<polyline
      style="fill:#B10000;"
      points="137.7,84.222 137.7,132.798 62.483,132.798 62.483,84.222 	"
    />
</g>
<rect
    x="46.144"
    y="454.02"
    style="fill:#474A51;"
    width="107.885"
    height="57.98"
  />
<rect
    x="46.144"
    y="454.02"
    style="fill:#393C42;"
    width="29.785"
    height="57.98"
  />
<rect
    x="357.972"
    y="454.02"
    style="fill:#474A51;"
    width="107.885"
    height="57.98"
  />
<g>
	<rect
      x="33.404"
      y="187.897"
      style="fill:#F50C15;"
      width="445.192"
      height="33.096"
    />
	<rect
      x="33.381"
      y="36.898"
      style="fill:#F50C15;"
      width="445.234"
      height="68.834"
    />
</g>
<path
    style="fill:#B10000;"
    d="M478.615,36.897v26.733c-147.227,26.472-298.007,26.472-445.234,0V36.897h138.515
	c56.006,3.761,112.199,3.761,168.215,0H478.615z"
  />
<rect
    x="357.972"
    y="454.02"
    style="fill:#393C42;"
    width="29.785"
    height="57.98"
  />
<path
    style="fill:#474A51;"
    d="M511.135,43.764c-168.304,34.854-341.965,34.854-510.27,0V0c168.304,34.854,341.965,34.854,510.27,0
	V43.764z"
  />
<g>
</g>
<g>
</g>
<g>
</g>
<g>
</g>
<g>
</g>
<g>
</g>
<g>
</g>
<g>
</g>
<g>
</g>
<g>
</g>
<g>
</g>
<g>
</g>
<g>
</g>
<g>
</g>
<g>
</g>
</svg>
