<?xml version="1.0" encoding="UTF-8" ?>
<svg
  xmlns="http://www.w3.org/2000/svg"
  xmlns:xlink="http://www.w3.org/1999/xlink"
  version="1.1"
  id="Capa_1"
  x="0px"
  y="0px"
  viewBox="0 0 512 512"
  style="enable-background:new 0 0 512 512;"
  xml:space="preserve"
	width="24"
  height="24"
>
<g>
	<g>
		<path
        style="fill:#F3F0F3;"
        d="M7.5,109.696v341.146c0,14.579,11.819,26.398,26.398,26.398h444.205&#10;&#9;&#9;&#9;c14.579,0,26.398-11.819,26.398-26.398l0-341.146L246.903,97.477L7.5,109.696z"
      />
		<path
        style="fill:#E2DEE2;"
        d="M474.5,108.273V391.74c0,30.652-24.848,55.5-55.5,55.5H7.5v3.602&#10;&#9;&#9;&#9;c0,14.579,11.819,26.398,26.398,26.398h444.205c14.579,0,26.398-11.819,26.398-26.398V109.696L474.5,108.273z"
      />
		<rect
        x="76.137"
        y="169.826"
        style="fill:#D9B1EE;"
        width="359.726"
        height="141.497"
      />
		<path
        style="fill:#A8D3D8;"
        d="M504.5,109.696V74.76c0-22.091-17.909-40-40-40h-417c-22.091,0-40,17.909-40,40v34.936H504.5z"
      />
		<path
        style="fill:#8EBAC5;"
        d="M464.5,34.76h-30c22.091,0,40,17.909,40,40v34.936h30V74.76&#10;&#9;&#9;&#9;C504.5,52.669,486.591,34.76,464.5,34.76z"
      />
		<circle style="fill:#FEAEE1;" cx="76.137" cy="169.826" r="17.398" />
		<circle style="fill:#FEAEE1;" cx="435.863" cy="169.826" r="17.398" />
		<circle style="fill:#FEAEE1;" cx="76.137" cy="311.323" r="17.398" />
		<circle style="fill:#FEAEE1;" cx="435.863" cy="311.323" r="17.398" />
		<path
        style="fill:#01D0FB;"
        d="M429.449,419.914H288.132c-3.542,0-6.414-2.872-6.414-6.414v-28.396&#10;&#9;&#9;&#9;c0-3.542,2.872-6.414,6.414-6.414h141.317c3.542,0,6.414,2.872,6.414,6.414V413.5&#10;&#9;&#9;&#9;C435.863,417.042,432.991,419.914,429.449,419.914z"
      />
	</g>
	<g>
		<path
        style="fill:none;stroke:#000000;stroke-width:15;stroke-linecap:round;stroke-linejoin:round;stroke-miterlimit:10;"
        d="&#10;&#9;&#9;&#9;M372.588,477.24H33.898c-14.579,0-26.398-11.819-26.398-26.398V74.76c0-22.091,17.909-40,40-40h417c22.091,0,40,17.909,40,40&#10;&#9;&#9;&#9;v376.081c0,14.579-11.819,26.398-26.398,26.398h-65.515"
      />
		
			<line
        style="fill:none;stroke:#000000;stroke-width:15;stroke-linecap:round;stroke-linejoin:round;stroke-miterlimit:10;"
        x1="137.576"
        y1="109.696"
        x2="499.422"
        y2="109.696"
      />
		
			<line
        style="fill:none;stroke:#000000;stroke-width:15;stroke-linecap:round;stroke-linejoin:round;stroke-miterlimit:10;"
        x1="7.5"
        y1="109.696"
        x2="97.576"
        y2="109.696"
      />
		
			<line
        style="fill:none;stroke:#000000;stroke-width:15;stroke-linecap:round;stroke-linejoin:round;stroke-miterlimit:10;"
        x1="365.702"
        y1="75.235"
        x2="456.425"
        y2="75.235"
      />
		
			<circle
        style="fill:none;stroke:#000000;stroke-width:15;stroke-linecap:round;stroke-linejoin:round;stroke-miterlimit:10;"
        cx="76.137"
        cy="169.826"
        r="17.398"
      />
		
			<circle
        style="fill:none;stroke:#000000;stroke-width:15;stroke-linecap:round;stroke-linejoin:round;stroke-miterlimit:10;"
        cx="435.863"
        cy="169.826"
        r="17.398"
      />
		
			<circle
        style="fill:none;stroke:#000000;stroke-width:15;stroke-linecap:round;stroke-linejoin:round;stroke-miterlimit:10;"
        cx="76.137"
        cy="311.323"
        r="17.398"
      />
		
			<circle
        style="fill:none;stroke:#000000;stroke-width:15;stroke-linecap:round;stroke-linejoin:round;stroke-miterlimit:10;"
        cx="435.863"
        cy="311.323"
        r="17.398"
      />
		<path
        style="fill:none;stroke:#000000;stroke-width:15;stroke-linecap:round;stroke-linejoin:round;stroke-miterlimit:10;"
        d="&#10;&#9;&#9;&#9;M299.743,209.139v62.818c0.695,0.119,22.015,0,22.015,0"
      />
		
			<line
        style="fill:none;stroke:#000000;stroke-width:15;stroke-linecap:round;stroke-linejoin:round;stroke-miterlimit:10;"
        x1="197.761"
        y1="209.139"
        x2="197.761"
        y2="272.01"
      />
		
			<polyline
        style="fill:none;stroke:#000000;stroke-width:15;stroke-linecap:round;stroke-linejoin:round;stroke-miterlimit:10;"
        points="&#10;&#9;&#9;&#9;384.127,209.426 357.878,209.426 357.878,271.723 384.127,271.723 &#9;&#9;"
      />
		
			<line
        style="fill:none;stroke:#000000;stroke-width:15;stroke-linecap:round;stroke-linejoin:round;stroke-miterlimit:10;"
        x1="382.192"
        y1="240.575"
        x2="357.878"
        y2="240.575"
      />
		
			<line
        style="fill:none;stroke:#000000;stroke-width:15;stroke-linecap:round;stroke-linejoin:round;stroke-miterlimit:10;"
        x1="127.873"
        y1="209.139"
        x2="162.593"
        y2="209.139"
      />
		
			<line
        style="fill:none;stroke:#000000;stroke-width:15;stroke-linecap:round;stroke-linejoin:round;stroke-miterlimit:10;"
        x1="145.163"
        y1="211.147"
        x2="145.163"
        y2="272.01"
      />
		
			<line
        style="fill:none;stroke:#000000;stroke-width:15;stroke-linecap:round;stroke-linejoin:round;stroke-miterlimit:10;"
        x1="231.077"
        y1="209.139"
        x2="265.798"
        y2="209.139"
      />
		
			<line
        style="fill:none;stroke:#000000;stroke-width:15;stroke-linecap:round;stroke-linejoin:round;stroke-miterlimit:10;"
        x1="248.367"
        y1="211.147"
        x2="248.367"
        y2="272.01"
      />
		
			<line
        style="fill:none;stroke:#000000;stroke-width:15;stroke-linecap:round;stroke-linejoin:round;stroke-miterlimit:10;"
        x1="76.137"
        y1="380.69"
        x2="237.758"
        y2="380.69"
      />
		
			<line
        style="fill:none;stroke:#000000;stroke-width:15;stroke-linecap:round;stroke-linejoin:round;stroke-miterlimit:10;"
        x1="76.137"
        y1="417.914"
        x2="237.758"
        y2="417.914"
      />
		<path
        style="fill:none;stroke:#000000;stroke-width:15;stroke-linecap:round;stroke-linejoin:round;stroke-miterlimit:10;"
        d="&#10;&#9;&#9;&#9;M429.449,419.914H288.132c-3.542,0-6.414-2.872-6.414-6.414v-28.396c0-3.542,2.872-6.414,6.414-6.414h141.317&#10;&#9;&#9;&#9;c3.542,0,6.414,2.872,6.414,6.414V413.5C435.863,417.042,432.991,419.914,429.449,419.914z"
      />
		
			<line
        style="fill:none;stroke:#000000;stroke-width:15;stroke-linecap:round;stroke-linejoin:round;stroke-miterlimit:10;"
        x1="76.137"
        y1="188.224"
        x2="76.137"
        y2="293.756"
      />
		
			<line
        style="fill:none;stroke:#000000;stroke-width:15;stroke-linecap:round;stroke-linejoin:round;stroke-miterlimit:10;"
        x1="435.863"
        y1="187.224"
        x2="435.863"
        y2="287.358"
      />
		
			<line
        style="fill:none;stroke:#000000;stroke-width:15;stroke-linecap:round;stroke-linejoin:round;stroke-miterlimit:10;"
        x1="93.535"
        y1="311.323"
        x2="418.465"
        y2="311.323"
      />
		
			<line
        style="fill:none;stroke:#000000;stroke-width:15;stroke-linecap:round;stroke-linejoin:round;stroke-miterlimit:10;"
        x1="97.576"
        y1="169.826"
        x2="415.325"
        y2="169.826"
      />
	</g>
</g>















</svg>
