<?xml version="1.0" encoding="UTF-8" ?>
<svg
  xmlns="http://www.w3.org/2000/svg"
  xmlns:xlink="http://www.w3.org/1999/xlink"
  version="1.1"
  id="Capa_1"
  x="0px"
  y="0px"
  viewBox="0 0 511.941 511.941"
  style="enable-background:new 0 0 511.941 511.941;"
  xml:space="preserve"
  width="24"
  height="24"
>
<g>
	<g>
		<path
        style="fill:#808FA4;"
        d="M391.501,489.381c0,4.16-1.69,7.93-4.41,10.65c-2.72,2.72-6.49,4.41-10.65,4.41h-108.58&#10;&#9;&#9;&#9;l-28.25-7.21l-33.71,7.21h-70.4c-8.32,0-15.06-6.74-15.06-15.06c0-32.12,11.17-61.62,29.84-84.84l21.16-6.04l1.94-16.58&#10;&#9;&#9;&#9;c3.43-2.64,6.98-5.13,10.66-7.43c20.71-12.99,45.17-20.54,71.39-20.64h1.01c26.24,0.09,50.74,7.64,71.46,20.65&#10;&#9;&#9;&#9;c3.67,2.3,7.23,4.78,10.65,7.42l4.55,16.58l18.56,6.05C380.331,427.771,391.501,457.271,391.501,489.381z"
      />
		<path
        style="fill:#64768E;"
        d="M178.621,492.331c0.21,4.94,2.51,9.27,5.96,12.11h-49.08c-8.32,0-15.06-6.74-15.06-15.06&#10;&#9;&#9;&#9;c0-32.12,11.17-61.62,29.84-84.84l21.16-6.04l1.94-16.58c3.43-2.64,6.98-5.13,10.66-7.43c20.71-12.99,45.17-20.54,71.39-20.64&#10;&#9;&#9;&#9;C207.601,379.181,176.031,433.011,178.621,492.331z"
      />
		<circle style="fill:#FFCBBE;" cx="414.088" cy="255.971" r="37.647" />
		<circle style="fill:#FFBBAE;" cx="97.853" cy="255.971" r="37.647" />
		<path
        style="fill:#ABB6C4;"
        d="M275.071,471.451l-32.94,30.92l-57.21-60.94l-15.78-25.74l-18.86-11.15&#10;&#9;&#9;&#9;c3.08-3.84,6.38-7.51,9.86-10.99c7.21-7.21,15.22-13.61,23.9-19.06l21.94,23.38l0.43,0.45L275.071,471.451z"
      />
		<path
        style="fill:#9CA9BA;"
        d="M205.981,397.871c-9.18,13.09-16.35,27.8-21.06,43.56l-34.64-36.89c3.08-3.84,6.38-7.51,9.86-10.99&#10;&#9;&#9;&#9;c7.21-7.21,15.22-13.61,23.9-19.06L205.981,397.871z"
      />
		<path
        style="fill:#C5CED6;"
        d="M361.661,404.551l-93.8,99.89h-61.96l122-129.94c8.68,5.44,16.69,11.84,23.9,19.05&#10;&#9;&#9;&#9;C355.291,397.031,358.581,400.711,361.661,404.551z"
      />
		<path
        style="fill:#FFDDCF;"
        d="M406.561,255.971c0,83.17-67.42,150.59-150.59,150.59c-0.68,0-1.37,0-2.05-0.01l-80.5-24.62&#10;&#9;&#9;&#9;c-31.4-20.61-54.62-52.64-63.77-90.2v-0.01l6.55-29.05l-8.57-32.75c3.91-22.48,12.82-43.25,25.53-61.12&#10;&#9;&#9;&#9;c27.3-38.38,72.13-63.42,122.81-63.42C339.141,105.381,406.561,172.801,406.561,255.971z"
      />
		<path
        style="fill:#FFCBBE;"
        d="M253.921,406.552c-82.22-1.1-148.54-68.09-148.54-150.58c0-32.48,10.28-62.57,27.78-87.17&#10;&#9;&#9;&#9;l51.94,39.42C185.101,208.221,137.961,320.721,253.921,406.552z"
      />
		<path
        style="fill:#F9F29D;"
        d="M462.801,130.231c-7.28,2.19-15.17,5.48-22.43,10.43c-14.36,9.77-26.28,26.01-26.28,52.98H97.851&#10;&#9;&#9;&#9;c0-26.97-11.92-43.21-26.28-52.98c-7.26-4.95-15.15-8.24-22.43-10.43c-12.06-3.63-14.47-19.53-4.14-26.73&#10;&#9;&#9;&#9;c21.42-14.92,41.64-12.44,55.03-7.59c10.68,3.87,21.66-5.34,19.79-16.54c-0.86-5.17-2.55-10.03-4.57-14.4&#10;&#9;&#9;&#9;c-4.92-10.64,3.81-22.58,15.44-21.13c15.06,1.87,26.75,6.78,35.02,11.59c1.73,1.01,3.55,1.63,5.38,1.89&#10;&#9;&#9;&#9;c7.55,1.14,15.23-3.67,16.91-11.76c1.75-8.39,2.19-16.22,2.07-22.71c-0.19-10.03,9.24-17.42,18.93-14.83&#10;&#9;&#9;&#9;c16.67,4.47,27.97,13.92,35.3,22.79c6.09,7.36,17.25,7.36,23.34,0c7.33-8.87,18.63-18.32,35.3-22.79&#10;&#9;&#9;&#9;c9.69-2.59,19.12,4.8,18.93,14.83c-0.12,6.49,0.32,14.32,2.07,22.71c2.09,10.05,13.42,15.03,22.29,9.87&#10;&#9;&#9;&#9;c8.27-4.81,19.96-9.72,35.02-11.59c11.63-1.45,20.36,10.49,15.44,21.13c-2.02,4.37-3.71,9.23-4.57,14.4&#10;&#9;&#9;&#9;c-1.87,11.2,9.11,20.41,19.79,16.54c13.39-4.85,33.61-7.33,55.03,7.59C477.271,110.701,474.861,126.601,462.801,130.231z"
      />
		<path
        style="fill:#F5EA72;"
        d="M440.371,140.661c-14.36,9.77-26.28,26.01-26.28,52.98H97.851c0-26.97-11.92-43.21-26.28-52.98&#10;&#9;&#9;&#9;c-7.26-4.95-15.15-8.24-22.43-10.43c-12.06-3.63-14.47-19.53-4.14-26.73c21.42-14.92,41.64-12.44,55.03-7.59&#10;&#9;&#9;&#9;c10.68,3.87,21.66-5.34,19.79-16.54c-0.86-5.17-2.55-10.03-4.57-14.4c-4.92-10.64,3.81-22.58,15.44-21.13&#10;&#9;&#9;&#9;c15.06,1.87,26.75,6.78,35.02,11.59c1.73,1.01,3.55,1.63,5.38,1.89c-3.203,9.325-5.676,24.154,2.001,39.913&#10;&#9;&#9;&#9;c2.784,5.716,8.904,9.014,15.218,8.27c5.594-0.66,11.397-1.235,17.41-1.713c3.18-0.25,6.2-1.52,8.6-3.62&#10;&#9;&#9;&#9;c11.03-9.64,25.63-16.94,41.65-16.94s30.62,7.3,41.65,16.94c2.4,2.1,5.42,3.37,8.6,3.62&#10;&#9;&#9;&#9;C379.961,109.641,421.941,130.491,440.371,140.661z"
      />
		<path
        style="fill:#808FA4;"
        d="M421.621,173.571v41.52c0,10.92-11.3,18.2-21.23,13.64c-23.98-11-69.73-25.47-144.42-25.47&#10;&#9;&#9;&#9;c-27.4,0-50.91,1.95-70.87,4.96l-69.07,1.69l-25.2,9.07h-0.01c-0.32-1.23-0.5-2.53-0.5-3.89v-41.52c0-2.82,0.79-5.53,2.23-7.85&#10;&#9;&#9;&#9;h0.01l35.73-9.18l50.08-22.54c21.36-3.61,47.06-6.03,77.6-6.03c93.18,0,141.31,22.52,158.34,32.73&#10;&#9;&#9;&#9;C418.841,163.411,421.621,168.291,421.621,173.571z"
      />
		<path
        style="fill:#64768E;"
        d="M185.101,208.221c-34.46,5.19-58.37,13.55-73.55,20.51c-9.93,4.56-21.23-2.72-21.23-13.64v-41.52&#10;&#9;&#9;&#9;c0-5.28,2.78-10.16,7.31-12.87c11.45-6.86,36.95-19.29,80.74-26.7c-2.62,3.03-5.24,7.7-5.2,14.2l1.13,47.08&#10;&#9;&#9;&#9;C174.301,195.281,174.351,204.401,185.101,208.221z"
      />
		<circle style="fill:#C5CED6;" cx="255.971" cy="165.618" r="52.706" />
		<g>
			<g>
				<ellipse
            style="fill:#FFA1AC;"
            cx="175.163"
            cy="294.71"
            rx="29.816"
            ry="23.744"
          />
				<ellipse
            style="fill:#FFA1AC;"
            cx="336.778"
            cy="294.71"
            rx="29.816"
            ry="23.744"
          />
			</g>
		</g>
	</g>
	<g>
		<path
        style="fill:none;stroke:#000000;stroke-width:15;stroke-linecap:round;stroke-linejoin:round;stroke-miterlimit:10;"
        d="&#10;&#9;&#9;&#9;M340.281,383.261c4.03,3.21,7.88,6.65,11.52,10.29c3.49,3.48,6.78,7.16,9.86,11c18.67,23.22,29.84,52.72,29.84,84.83&#10;&#9;&#9;&#9;c0,4.16-1.69,7.93-4.41,10.65s-6.49,4.41-10.65,4.41h-240.94c-8.32,0-15.06-6.74-15.06-15.06c0-32.12,11.17-61.62,29.84-84.84&#10;&#9;&#9;&#9;c3.08-3.84,6.38-7.51,9.86-10.99c3.64-3.64,7.49-7.08,11.52-10.29"
      />
		<path
        style="fill:none;stroke:#000000;stroke-width:15;stroke-linecap:round;stroke-linejoin:round;stroke-miterlimit:10;"
        d="&#10;&#9;&#9;&#9;M422.921,219.361c16.53,3.98,28.81,18.86,28.81,36.61c0,20.79-16.85,37.65-37.64,37.65c-3.4,0-6.69-0.45-9.82-1.29"
      />
		<path
        style="fill:none;stroke:#000000;stroke-width:15;stroke-linecap:round;stroke-linejoin:round;stroke-miterlimit:10;"
        d="&#10;&#9;&#9;&#9;M89.021,219.361c-16.53,3.98-28.81,18.86-28.81,36.61c0,20.79,16.85,37.65,37.64,37.65c3.4,0,6.69-0.45,9.82-1.29"
      />
		
			<line
        style="fill:none;stroke:#000000;stroke-width:15;stroke-linecap:round;stroke-linejoin:round;stroke-miterlimit:10;"
        x1="223.955"
        y1="483.009"
        x2="151.38"
        y2="405.712"
      />
		
			<line
        style="fill:none;stroke:#000000;stroke-width:15;stroke-linecap:round;stroke-linejoin:round;stroke-miterlimit:10;"
        x1="254.64"
        y1="449.694"
        x2="206.712"
        y2="398.637"
      />
		
			<line
        style="fill:none;stroke:#000000;stroke-width:15;stroke-linecap:round;stroke-linejoin:round;stroke-miterlimit:10;"
        x1="361.211"
        y1="405.031"
        x2="325.251"
        y2="443.331"
      />
		
			<line
        style="fill:none;stroke:#000000;stroke-width:15;stroke-linecap:round;stroke-linejoin:round;stroke-miterlimit:10;"
        x1="301.291"
        y1="468.841"
        x2="268.951"
        y2="503.281"
      />
		
			<line
        style="fill:none;stroke:#000000;stroke-width:15;stroke-linecap:round;stroke-linejoin:round;stroke-miterlimit:10;"
        x1="304.743"
        y1="399.165"
        x2="206.712"
        y2="503.577"
      />
		<path
        style="fill:none;stroke:#000000;stroke-width:15;stroke-linecap:round;stroke-linejoin:round;stroke-miterlimit:10;"
        d="&#10;&#9;&#9;&#9;M118.301,317.081c-8.31-18.68-12.92-39.36-12.92-61.11c0-8.63,0.73-17.09,2.12-25.33"
      />
		<path
        style="fill:none;stroke:#000000;stroke-width:15;stroke-linecap:round;stroke-linejoin:round;stroke-miterlimit:10;"
        d="&#10;&#9;&#9;&#9;M404.441,230.641c1.39,8.24,2.12,16.7,2.12,25.33c0,83.17-67.42,150.59-150.59,150.59c-48.88,0-92.31-23.28-119.82-59.37"
      />
		<path
        style="fill:none;stroke:#000000;stroke-width:15;stroke-linecap:round;stroke-linejoin:round;stroke-miterlimit:10;"
        d="&#10;&#9;&#9;&#9;M92.291,165.151c-9.03-20.41-27.49-30.21-43.15-34.92c-12.06-3.63-14.47-19.53-4.14-26.73c21.42-14.92,41.64-12.44,55.03-7.59&#10;&#9;&#9;&#9;c10.68,3.87,21.66-5.34,19.79-16.54c-0.86-5.17-2.55-10.03-4.57-14.4c-4.92-10.64,3.81-22.58,15.44-21.13&#10;&#9;&#9;&#9;c15.06,1.87,26.75,6.78,35.02,11.59c8.87,5.16,20.2,0.18,22.29-9.87c1.75-8.39,2.19-16.22,2.07-22.71&#10;&#9;&#9;&#9;c-0.19-10.03,9.24-17.42,18.93-14.83c16.67,4.47,27.97,13.92,35.3,22.79c6.09,7.36,17.25,7.36,23.34,0&#10;&#9;&#9;&#9;c7.33-8.87,18.63-18.32,35.3-22.79c9.69-2.59,19.12,4.8,18.93,14.83c-0.12,6.49,0.32,14.32,2.07,22.71&#10;&#9;&#9;&#9;c2.09,10.05,13.42,15.03,22.29,9.87c8.27-4.81,19.96-9.72,35.02-11.59c11.63-1.45,20.36,10.49,15.44,21.13&#10;&#9;&#9;&#9;c-2.02,4.37-3.71,9.23-4.57,14.4c-1.87,11.2,9.11,20.41,19.79,16.54c13.39-4.85,33.61-7.33,55.03,7.59&#10;&#9;&#9;&#9;c10.33,7.2,7.92,23.1-4.14,26.73c-15.66,4.71-34.12,14.51-43.15,34.92"
      />
		<path
        style="fill:none;stroke:#000000;stroke-width:15;stroke-linecap:round;stroke-linejoin:round;stroke-miterlimit:10;"
        d="&#10;&#9;&#9;&#9;M216.261,129.441c-67.49,5.14-104.21,22.61-118.63,31.26c-4.53,2.71-7.31,7.59-7.31,12.87v41.52c0,10.92,11.3,18.2,21.23,13.64&#10;&#9;&#9;&#9;c19.73-9.05,54.19-20.45,107.38-24.2"
      />
		<path
        style="fill:none;stroke:#000000;stroke-width:15;stroke-linecap:round;stroke-linejoin:round;stroke-miterlimit:10;"
        d="&#10;&#9;&#9;&#9;M372.251,142.941c20.91,6.32,34.53,13.24,42.06,17.76c4.53,2.71,7.31,7.59,7.31,12.87v41.52c0,10.92-11.3,18.2-21.23,13.64&#10;&#9;&#9;&#9;c-19.73-9.05-54.19-20.45-107.38-24.2"
      />
		<path
        style="fill:none;stroke:#000000;stroke-width:15;stroke-linecap:round;stroke-linejoin:round;stroke-miterlimit:10;"
        d="&#10;&#9;&#9;&#9;M338.181,134.811c-12.55-2.28-26.68-4.17-42.5-5.37"
      />
		
			<circle
        style="fill:none;stroke:#000000;stroke-width:15;stroke-linecap:round;stroke-linejoin:round;stroke-miterlimit:10;"
        cx="255.971"
        cy="165.618"
        r="52.706"
      />
		<g>
			<g>
				
					<line
            style="fill:none;stroke:#000000;stroke-width:15;stroke-linecap:round;stroke-linejoin:round;stroke-miterlimit:10;"
            x1="183.158"
            y1="240.913"
            x2="204.283"
            y2="244.637"
          />
				
					<line
            style="fill:none;stroke:#000000;stroke-width:15;stroke-linecap:round;stroke-linejoin:round;stroke-miterlimit:10;"
            x1="328.783"
            y1="240.913"
            x2="307.659"
            y2="244.637"
          />
				<g>
					<path
              style="fill:none;stroke:#000000;stroke-width:15;stroke-linecap:round;stroke-miterlimit:10;"
              d="M255.971,273.624&#10;&#9;&#9;&#9;&#9;&#9;&#9;c0,7.984-6.472,14.456-14.456,14.456c-7.984,0-14.456-6.472-14.456-14.456"
            />
					<path
              style="fill:none;stroke:#000000;stroke-width:15;stroke-linecap:round;stroke-miterlimit:10;"
              d="M284.882,273.624&#10;&#9;&#9;&#9;&#9;&#9;&#9;c0,7.984-6.472,14.456-14.456,14.456c-7.984,0-14.456-6.472-14.456-14.456"
            />
				</g>
			</g>
			
				<line
          style="fill:none;stroke:#000000;stroke-width:15;stroke-linecap:round;stroke-linejoin:round;stroke-miterlimit:10;"
          x1="192.54"
          y1="259.759"
          x2="192.54"
          y2="271.759"
        />
			
				<line
          style="fill:none;stroke:#000000;stroke-width:15;stroke-linecap:round;stroke-linejoin:round;stroke-miterlimit:10;"
          x1="319.401"
          y1="259.759"
          x2="319.401"
          y2="271.759"
        />
		</g>
	</g>
</g>















</svg>
