<?xml version="1.0" encoding="UTF-8"?>
<svg xmlns="http://www.w3.org/2000/svg" xmlns:xlink="http://www.w3.org/1999/xlink" version="1.1" id="Capa_1" x="0px" y="0px" viewBox="0 0 512 512" style="enable-background:new 0 0 512 512;" xml:space="preserve" width="24" height="24">
<g>
	<g>
		<path style="fill:#F2FBFF;" d="M75.199,90.103L42.767,7.5h320.214c17.912,0,32.432,14.52,32.432,32.432v441.374&#10;&#9;&#9;&#9;c0,2.103,8.685,3.982,6.709,4.701l-49.943,16.191c-1.106,0.403-2.319,0.403-3.425,0l-51.521-16.766&#10;&#9;&#9;&#9;c-1.106-0.403-2.319-0.403-3.425,0l-51.514,18.765c-1.106,0.403-2.319,0.403-3.425,0l-51.515-18.765&#10;&#9;&#9;&#9;c-1.106-0.403-2.319-0.403-3.425,0l-51.513,18.765c-1.106,0.403-2.319,0.403-3.425,0l-49.939-18.192&#10;&#9;&#9;&#9;c-1.973-0.719-3.288-2.594-3.291-4.694L75.199,90.103z"/>
		<g>
			<path style="fill:#C8EFFE;" d="M372.981,7.5h-30c17.912,0,32.432,14.52,32.432,32.432v441.374c0,2.103-1.315,3.981-3.291,4.701&#10;&#9;&#9;&#9;&#9;l-36.655,13.351l13.288,2.84c1.106,0.403,2.318,0.403,3.424,0l49.943-16.191c1.976-0.72,3.291-2.598,3.291-4.701V39.932&#10;&#9;&#9;&#9;&#9;C405.412,22.02,390.892,7.5,372.981,7.5z"/>
		</g>
		<path style="fill:#6BD9E7;" d="M15.339,90.103h59.861V39.932C75.199,22.02,60.679,7.5,42.767,7.5h0&#10;&#9;&#9;&#9;c-17.912,0-32.432,14.52-32.432,32.432V85.1C10.335,87.863,12.575,90.103,15.339,90.103z"/>
		<path style="fill:#FE7AB6;" d="M247.998,191.499c-3.84,3.84-18.801,10.783-22.641,6.943l-63.439-63.439&#10;&#9;&#9;&#9;c-18.421-18.421-18.421-48.287,0-66.708l0,0c18.421-18.421,48.287-18.421,66.708,0l4.778,4.778c3.84,3.84,10.066,3.84,13.906,0&#10;&#9;&#9;&#9;l4.778-4.778c5.341-5.341,11.643-9.133,18.35-11.377c16.426-5.496,35.354,21.505,48.434,34.585l-0.895-15.328&#10;&#9;&#9;&#9;c18.421,18.421,3.666,41.42-14.755,59.841L247.998,191.499z"/>
		<g>
			<path style="fill:#FE3D97;" d="M318.796,68.296L318.796,68.296c-13.08-13.08-31.928-16.862-48.354-11.366&#10;&#9;&#9;&#9;&#9;c6.707,2.244,13.013,6.025,18.354,11.366l0,0c18.421,18.421,18.421,48.287,0,66.707l-63.439,63.439l8.047,8.047&#10;&#9;&#9;&#9;&#9;c3.84,3.84,10.066,3.84,13.906,0l71.486-71.486C337.216,116.583,337.216,86.717,318.796,68.296z"/>
		</g>
		<path style="fill:#FFE177;" d="M309.222,493.406c-0.651,5.92,3.984,11.094,9.94,11.094h162.501c5.956,0,10.591-5.174,9.94-11.094&#10;&#9;&#9;&#9;l-19.552-177.682c-0.558-5.069-4.84-8.906-9.94-8.906H338.714c-5.1,0-9.382,3.837-9.94,8.906L309.222,493.406z"/>
		<path style="fill:#FFC344;" d="M501.603,493.406l-19.552-177.682c-0.558-5.069-4.84-8.906-9.94-8.906h-25&#10;&#9;&#9;&#9;c5.1,0,9.382,3.837,9.94,8.906l19.552,177.682c0.651,5.92-3.984,11.094-9.94,11.094h25&#10;&#9;&#9;&#9;C497.619,504.5,502.255,499.326,501.603,493.406z"/>
	</g>
	<g>
		<path style="fill:none;stroke:#000000;stroke-width:15;stroke-linecap:round;stroke-linejoin:round;stroke-miterlimit:10;" d="&#10;&#9;&#9;&#9;M15.339,90.103h59.861V39.932C75.199,22.02,60.679,7.5,42.767,7.5l0,0c-17.912,0-32.432,14.52-32.432,32.432V85.1&#10;&#9;&#9;&#9;C10.335,87.863,12.575,90.103,15.339,90.103z"/>
		
			<line style="fill:none;stroke:#000000;stroke-width:15;stroke-linecap:round;stroke-linejoin:round;stroke-miterlimit:10;" x1="124.718" y1="252.463" x2="150.365" y2="252.463"/>
		
			<line style="fill:none;stroke:#000000;stroke-width:15;stroke-linecap:round;stroke-linejoin:round;stroke-miterlimit:10;" x1="188.836" y1="252.463" x2="353.884" y2="252.463"/>
		
			<line style="fill:none;stroke:#000000;stroke-width:15;stroke-linecap:round;stroke-linejoin:round;stroke-miterlimit:10;" x1="124.718" y1="314.46" x2="150.365" y2="314.46"/>
		
			<line style="fill:none;stroke:#000000;stroke-width:15;stroke-linecap:round;stroke-linejoin:round;stroke-miterlimit:10;" x1="188.836" y1="314.46" x2="283.884" y2="314.46"/>
		
			<line style="fill:none;stroke:#000000;stroke-width:15;stroke-linecap:round;stroke-linejoin:round;stroke-miterlimit:10;" x1="124.718" y1="376.456" x2="150.365" y2="376.456"/>
		
			<line style="fill:none;stroke:#000000;stroke-width:15;stroke-linecap:round;stroke-linejoin:round;stroke-miterlimit:10;" x1="188.836" y1="376.456" x2="283.884" y2="376.456"/>
		
			<line style="fill:none;stroke:#000000;stroke-width:15;stroke-linecap:round;stroke-linejoin:round;stroke-miterlimit:10;" x1="124.718" y1="438.452" x2="150.365" y2="438.452"/>
		
			<line style="fill:none;stroke:#000000;stroke-width:15;stroke-linecap:round;stroke-linejoin:round;stroke-miterlimit:10;" x1="188.836" y1="438.452" x2="283.884" y2="438.452"/>
		<path style="fill:none;stroke:#000000;stroke-width:15;stroke-linecap:round;stroke-linejoin:round;stroke-miterlimit:10;" d="&#10;&#9;&#9;&#9;M276.332,177.467l-29.022,29.022c-3.84,3.84-10.066,3.84-13.906,0l-71.486-71.486c-18.421-18.421-18.421-48.287,0-66.708l0,0&#10;&#9;&#9;&#9;c18.421-18.421,48.287-18.421,66.708,0l4.778,4.778c3.84,3.84,10.066,3.84,13.906,0l4.778-4.778&#10;&#9;&#9;&#9;c18.421-18.421,48.287-18.421,66.708,0l0,0c18.421,18.421,18.421,48.287,0,66.708L299.199,154.6"/>
		<path style="fill:none;stroke:#000000;stroke-width:15;stroke-linecap:round;stroke-linejoin:round;stroke-miterlimit:10;" d="&#10;&#9;&#9;&#9;M43.767,7.5h329.214c17.912,0,32.432,14.52,32.432,32.432v264.753"/>
		<path style="fill:none;stroke:#000000;stroke-width:15;stroke-linecap:round;stroke-linejoin:round;stroke-miterlimit:10;" d="&#10;&#9;&#9;&#9;M372.752,340.189v-54.774c0-18.038,14.623-32.661,32.661-32.661h0c18.038,0,32.661,14.623,32.661,32.661v54.774"/>
		<path style="fill:none;stroke:#000000;stroke-width:15;stroke-linecap:round;stroke-linejoin:round;stroke-miterlimit:10;" d="&#10;&#9;&#9;&#9;M485.284,345.103l-3.233-29.379c-0.558-5.069-4.84-8.906-9.94-8.906H338.714c-5.099,0-9.382,3.837-9.94,8.906l-19.552,177.682&#10;&#9;&#9;&#9;c-0.651,5.92,3.984,11.094,9.94,11.094h172.501c5.956,0,10.591-5.174,9.94-11.094l-12.723-115.617"/>
		
			<line style="fill:none;stroke:#000000;stroke-width:15;stroke-linecap:round;stroke-linejoin:round;stroke-miterlimit:10;" x1="75.549" y1="333.49" x2="75.199" y2="91.103"/>
		<path style="fill:none;stroke:#000000;stroke-width:15;stroke-linecap:round;stroke-linejoin:round;stroke-miterlimit:10;" d="&#10;&#9;&#9;&#9;M309.161,489.777l-11.928-4.344c-1.106-0.403-2.319-0.403-3.425,0l-51.514,18.765c-1.106,0.403-2.319,0.403-3.425,0&#10;&#9;&#9;&#9;l-51.515-18.765c-1.106-0.403-2.319-0.403-3.425,0l-51.513,18.765c-1.106,0.403-2.319,0.403-3.425,0l-49.939-18.192&#10;&#9;&#9;&#9;c-1.973-0.719-3.288-2.594-3.291-4.694l-0.166-114.942"/>
	</g>
</g>















</svg>